<svg version="1" xmlns="http://www.w3.org/2000/svg" width="250.667" height="250.667" viewBox="0 0 188.000000 188.000000"><path d="M0 55v5h4.5c4.1 0 4.5.2 4.5 2.5 0 2.4.2 2.5 6.5 2.5s6.5-.1 6.5-2.5c0-2.3.4-2.5 4.5-2.5H31V50H0v5zM41.9 52.2c-.1.4-.1 25 0 27 .1 1.4 1 1.8 3.5 1.8h3.3V70c0-6.1.3-11.3.5-11.6.3-.2 4.4 4.8 9.2 11.1L67.2 81H79V52H72.3l.1 11.5c0 6.3-.2 11.5-.5 11.5-.4 0-3.3-3.5-6.5-7.7-3.3-4.3-6.5-8.4-7.2-9.2-.7-.8-2-2.4-2.9-3.7C54 52.3 53 52 47.9 52c-3.3 0-5.9.1-6 .2zM87.3 53.2c-3 1.5-3.6 3.8-3.8 13.8-.2 8 0 8.6 2.6 11.2 2.6 2.7 3.2 2.8 12.7 2.8 17.8 0 18.7-.8 18.6-15.2-.2-12.7-.8-13.2-16.2-13.5-7.1-.2-12.6.2-13.9.9zm21.5 5.7c1.6 1 2.3 10.6 1.1 13.9-.8 2-1.4 2.2-9.4 2.2s-8.6-.2-9.4-2.3c-1-2.7-.8-11.7.3-13.5.8-1.4 15.3-1.7 17.4-.3zM119 53.3c0 .7.4 1.7.9 2.2.4.6 2.8 4.6 5.1 9 9.3 17.3 8.2 16 13.8 16.3l5 .3 3.2-5.8c4.6-8.1 12-22.2 12-22.8 0-.3-1.7-.5-3.8-.5-3.7 0-3.7 0-9.1 10.2-2.9 5.7-5.9 10.9-6.5 11.5-.9 1-2.5-1.3-7.1-10.2l-6-11.5h-3.7c-2.5 0-3.8.5-3.8 1.3zM163.5 54.2c-2 4.4-11.7 22.3-12.6 23.3-2 2.1-.8 3.5 2.9 3.5 3.4 0 4-.4 5.5-3.5L161 74h17.5l1.9 3.5c1.5 2.7 2.5 3.5 4.8 3.5 4 0 3.7-2.9-1.1-12.1-9.7-18.3-8.1-16.4-14.2-16.7-4.8-.2-5.5 0-6.4 2zm9.4 8.8l3.1 5h-11.8l2.7-5c1.4-2.7 2.7-5 2.8-5 .1 0 1.5 2.2 3.2 5z"/><path d="M0 71.5V79h31V64h-3c-2.5 0-3 .4-3 2.5 0 2.5 0 2.5-9.5 2.5S6 69 6 66.5c0-2.1-.5-2.5-3-2.5H0v7.5zM3.6 113.7c.1 7.6.2 14.2.3 14.6 0 .5 6.4.7 14.2.5 13.2-.3 14.2-.4 15.9-2.6 2.2-2.6 2-9-.3-10.7-1-.7-1.2-1.6-.6-2.6.4-.9 1.1-3 1.4-4.8.4-2.5 0-3.7-1.8-5.5-2.3-2.3-3.1-2.4-15.8-2.5l-13.4-.2.1 13.8zm23.8-6.1c1.3 3.3-1.3 4.5-9.3 4.2-7.9-.3-7.8-.3-7.2-4.8 0-.6 3.5-1 8-1 6.4 0 8 .3 8.5 1.6zm1 11.3c.4.5.3 1.6 0 2.5-.5 1.3-2.3 1.6-8.9 1.6-8.3 0-9.9-.7-8.7-3.8.5-1.4 16.7-1.7 17.6-.3zM43.3 101.2c-3.1 1.5-3.6 3.2-3.8 12.3-.3 14.4 1.1 15.7 18.1 15.4 9.6-.1 11.6-.4 13.3-2.1 2.3-2 2.3-2 2.5-12.3.2-8-1.3-12.1-5-13.5-3.4-1.3-22.3-1.1-25.1.2zm21.6 5.7c1 .6 1.5 2.9 1.5 6.8.1 9.2 0 9.3-9.8 9.3-5.1 0-8.8-.4-9.2-1.1-1.4-2.3-1.2-13 .3-14.4 1.6-1.7 14.8-2.1 17.2-.6zM88.2 103.2c-2.8 4.7-13.2 24.5-13.2 25.2 0 .3 1.7.6 3.8.6 3.4 0 4-.4 5.5-3.5L86 122h17.5l1.9 3.5c1.7 3.1 2.4 3.5 5.8 3.5 2.1 0 3.8-.2 3.8-.4 0-.4-9.7-19.1-13-25.1-1.5-2.6-2.3-3-6.7-3.3-4.8-.3-5.2-.1-7.1 3zM98 111c1.1 2.2 2 4.2 2 4.5 0 .3-2.4.5-5.4.5h-5.4l2.6-4.9c1.5-2.7 3-4.7 3.4-4.4.5.2 1.7 2.2 2.8 4.3zM117.9 100.2c-.1.2-.2 6.7-.3 14.6l-.1 14.3 3.5-.3c3.4-.3 3.5-.4 3.4-4.6V120h8c9.3 0 10.8.7 11.1 4.7.2 1.5.3 3.2.4 3.6.1.5 1.6.7 3.4.5 2.8-.3 3.2-.7 3.2-3.3 0-4-1.5-7.5-3.2-7.5-1.1 0-.9-.7.6-2.6 3.3-4.2 2.4-10.9-1.8-14.1-1.3-.9-27.8-2-28.2-1.1zm24.5 7.4c2.1 5.5 0 6.7-10.9 6.2l-6.9-.3-.1-3.8-.1-3.7h8.7c7 0 8.8.3 9.3 1.6zM153.5 114.5V129h12.7c13.7 0 17-.7 18.8-4.1 1.6-2.9 1.9-14.8.6-19-1.7-5-4.3-5.9-19.1-5.9h-13v14.5zm24.6-6.8c1.8 2.2 1.8 11.5 0 13.7-1 1.2-3.3 1.6-9.5 1.6h-8.1v-17h8.1c6.5 0 8.4.3 9.5 1.7z"/></svg>